<svg width="56" height="56" viewBox="0 0 56 56" fill="none" xmlns="http://www.w3.org/2000/svg">
<g clip-path="url(#clip0_1_1164)">
<circle cx="28" cy="28" r="28" fill="#DAE3EA"/>
<path fill-rule="evenodd" clip-rule="evenodd" d="M33.3333 22.6667C33.3333 25.6133 30.9467 28 28 28C25.0533 28 22.6667 25.6133 22.6667 22.6667C22.6667 19.72 25.0533 17.3333 28 17.3333C30.9467 17.3333 33.3333 19.72 33.3333 22.6667ZM17.3333 36C17.3333 32.4533 24.44 30.6667 28 30.6667C31.56 30.6667 38.6667 32.4533 38.6667 36V37.3333C38.6667 38.0667 38.0667 38.6667 37.3333 38.6667H18.6667C17.9333 38.6667 17.3333 38.0667 17.3333 37.3333V36Z" fill="#94A3B1"/>
</g>
<defs>
<clipPath id="clip0_1_1164">
<rect width="56" height="56" fill="white"/>
</clipPath>
</defs>
</svg>
