<svg width="3" height="13" viewBox="0 0 3 13" fill="none" xmlns="http://www.w3.org/2000/svg">
<path d="M1.49992 9.33331C1.87564 9.33331 2.23598 9.48257 2.50165 9.74825C2.76733 10.0139 2.91659 10.3743 2.91659 10.75C2.91659 11.1257 2.76733 11.486 2.50165 11.7517C2.23598 12.0174 1.87564 12.1666 1.49992 12.1666C1.1242 12.1666 0.763861 12.0174 0.498184 11.7517C0.232508 11.486 0.083252 11.1257 0.083252 10.75C0.083252 10.3743 0.232508 10.0139 0.498184 9.74825C0.763861 9.48257 1.1242 9.33331 1.49992 9.33331ZM1.49992 5.08331C1.87564 5.08331 2.23598 5.23257 2.50165 5.49825C2.76733 5.76392 2.91659 6.12426 2.91659 6.49998C2.91659 6.8757 2.76733 7.23604 2.50165 7.50171C2.23598 7.76739 1.87564 7.91665 1.49992 7.91665C1.1242 7.91665 0.763861 7.76739 0.498184 7.50171C0.232508 7.23604 0.083252 6.8757 0.083252 6.49998C0.083252 6.12426 0.232508 5.76392 0.498184 5.49825C0.763861 5.23257 1.1242 5.08331 1.49992 5.08331ZM1.49992 0.833313C1.87564 0.833313 2.23598 0.982568 2.50165 1.24824C2.76733 1.51392 2.91659 1.87426 2.91659 2.24998C2.91659 2.6257 2.76733 2.98604 2.50165 3.25171C2.23598 3.51739 1.87564 3.66665 1.49992 3.66665C1.1242 3.66665 0.763861 3.51739 0.498184 3.25171C0.232508 2.98604 0.083252 2.6257 0.083252 2.24998C0.083252 1.87426 0.232508 1.51392 0.498184 1.24824C0.763861 0.982568 1.1242 0.833313 1.49992 0.833313Z" fill="black" fill-opacity="0.2"/>
</svg>
